<svg width="96" height="96" viewBox="0 0 96 96" fill="none" xmlns="http://www.w3.org/2000/svg">
<path d="M0 48C0 21.4903 21.4903 0 48 0C74.5097 0 96 21.4903 96 48C96 74.5097 74.5097 96 48 96C21.4903 96 0 74.5097 0 48Z" fill="url(#paint0_linear_87_9608)" fill-opacity="0.1"/>
<g filter="url(#filter0_d_87_9608)">
<path d="M16 48C16 30.3269 30.3269 16 48 16C65.6731 16 80 30.3269 80 48C80 65.6731 65.6731 80 48 80C30.3269 80 16 65.6731 16 48Z" fill="white"/>
<path d="M48 16.5C65.397 16.5 79.5 30.603 79.5 48C79.5 65.397 65.397 79.5 48 79.5C30.603 79.5 16.5 65.397 16.5 48C16.5 30.603 30.603 16.5 48 16.5Z" stroke="#E1E4EA"/>
<path d="M39 43C39 41.067 40.567 39.5 42.5 39.5C44.433 39.5 46 41.067 46 43C46 44.933 44.433 46.5 42.5 46.5C40.567 46.5 39 44.933 39 43ZM56 44H48V42H56V44ZM50 53C50 51.067 51.567 49.5 53.5 49.5C55.433 49.5 57 51.067 57 53C57 54.933 55.433 56.5 53.5 56.5C51.567 56.5 50 54.933 50 53ZM48 52V54H40V52H48Z" fill="#FF2557"/>
</g>
<defs>
<filter id="filter0_d_87_9608" x="14" y="15" width="68" height="68" filterUnits="userSpaceOnUse" color-interpolation-filters="sRGB">
<feFlood flood-opacity="0" result="BackgroundImageFix"/>
<feColorMatrix in="SourceAlpha" type="matrix" values="0 0 0 0 0 0 0 0 0 0 0 0 0 0 0 0 0 0 127 0" result="hardAlpha"/>
<feOffset dy="1"/>
<feGaussianBlur stdDeviation="1"/>
<feComposite in2="hardAlpha" operator="out"/>
<feColorMatrix type="matrix" values="0 0 0 0 0.0392157 0 0 0 0 0.0509804 0 0 0 0 0.0784314 0 0 0 0.03 0"/>
<feBlend mode="normal" in2="BackgroundImageFix" result="effect1_dropShadow_87_9608"/>
<feBlend mode="normal" in="SourceGraphic" in2="effect1_dropShadow_87_9608" result="shape"/>
</filter>
<linearGradient id="paint0_linear_87_9608" x1="48" y1="0" x2="48" y2="96" gradientUnits="userSpaceOnUse">
<stop stop-color="#717784"/>
<stop offset="1" stop-color="#717784" stop-opacity="0"/>
</linearGradient>
</defs>
</svg>
