<svg width="21" height="20" viewBox="0 0 21 20" fill="none" xmlns="http://www.w3.org/2000/svg">
<path d="M14.5923 10.0523C14.6133 12.3223 16.5836 13.0777 16.6055 13.0873C16.5888 13.1406 16.2906 14.1638 15.5674 15.2207C14.9422 16.1345 14.2933 17.0449 13.2712 17.0638C12.2668 17.0823 11.9439 16.4682 10.7956 16.4682C9.64763 16.4682 9.28881 17.0449 8.33805 17.0823C7.35141 17.1197 6.60006 16.0942 5.9697 15.1838C4.68158 13.3215 3.69718 9.92136 5.01897 7.62624C5.67561 6.48647 6.84907 5.76472 8.12276 5.74621C9.09162 5.72773 10.0061 6.39803 10.5984 6.39803C11.1903 6.39803 12.3016 5.59194 13.4698 5.71032C13.9589 5.73068 15.3318 5.90788 16.2133 7.19823C16.1423 7.24226 14.5752 8.15453 14.5923 10.0523ZM12.7047 4.47826C13.2285 3.8442 13.581 2.96153 13.4848 2.08328C12.7298 2.11363 11.8168 2.58642 11.2752 3.22013C10.7899 3.78131 10.3648 4.67951 10.4795 5.54038C11.3211 5.60549 12.1808 5.11272 12.7047 4.47826Z" fill="black"/>
</svg>
