<svg width="38" height="38" viewBox="0 0 38 38" fill="none" xmlns="http://www.w3.org/2000/svg">
<path d="M0 12C0 5.37258 5.37258 0 12 0H26C32.6274 0 38 5.37258 38 12V26C38 32.6274 32.6274 38 26 38H12C5.37258 38 0 32.6274 0 26V12Z" fill="#E1E4EA"/>
<g clip-path="url(#clip0_87_9645)">
<ellipse cx="18.9998" cy="37.05" rx="15.2" ry="11.4" fill="white" fill-opacity="0.72"/>
<ellipse opacity="0.9" cx="18.9999" cy="15.2" rx="7.6" ry="7.6" fill="white"/>
</g>
<defs>
<clipPath id="clip0_87_9645">
<path d="M0 12C0 5.37258 5.37258 0 12 0H26C32.6274 0 38 5.37258 38 12V26C38 32.6274 32.6274 38 26 38H12C5.37258 38 0 32.6274 0 26V12Z" fill="white"/>
</clipPath>
</defs>
</svg>
