<svg width="16" height="15" viewBox="0 0 16 15" fill="none" xmlns="http://www.w3.org/2000/svg">
<circle cx="8" cy="7.5" r="7.5" fill="#FCEDA5"/>
<g filter="url(#filter0_i_134_1592)">
<circle cx="8" cy="7.5" r="5.625" fill="#F3CF49"/>
</g>
<path d="M9.48075 7.92228C9.18807 7.92228 8.92294 8.04118 8.73132 8.23319C8.54203 8.42153 8.28116 8.53809 7.99295 8.53809C7.70474 8.53809 7.45978 8.42832 7.27204 8.25007C7.27262 8.24949 7.2732 8.2489 7.27378 8.24832C7.08003 8.06038 6.95978 7.79756 6.95978 7.50643C6.95978 7.2153 7.08022 6.9523 7.27378 6.76455C7.27359 6.76435 7.2732 6.76396 7.27301 6.76377C7.46114 6.57253 7.57732 6.30952 7.57732 6.01917C7.57732 5.43438 7.10602 4.96035 6.52494 4.96035C5.94387 4.96035 5.47257 5.43438 5.47257 6.01917C5.47257 6.30622 5.58642 6.56651 5.77086 6.75717C5.77028 6.75776 5.76989 6.75814 5.76931 6.75853C5.95259 6.95171 6.06509 7.21278 6.06509 7.50003C6.06509 7.78728 5.95007 8.05417 5.7633 8.24793C5.7633 8.24793 5.7633 8.24793 5.76349 8.24813C5.57594 8.43821 5.45996 8.69927 5.45996 8.9873C5.45996 9.56859 5.93126 10.0397 6.51234 10.0397C6.80055 10.0397 7.06141 9.92373 7.25148 9.73617C7.25187 9.73656 7.25206 9.73675 7.25245 9.73714C7.44349 9.54997 7.70494 9.43457 7.99334 9.43457C8.28174 9.43457 8.54319 9.54997 8.73423 9.73714C8.7352 9.73617 8.73598 9.7352 8.73695 9.73423C8.92818 9.92295 9.19079 10.0395 9.48055 10.0395C10.0653 10.0395 10.5393 9.56549 10.5393 8.98071C10.5393 8.39592 10.0653 7.92189 9.48055 7.92189L9.48075 7.92228Z" fill="#FEF5CD"/>
<defs>
<filter id="filter0_i_134_1592" x="2.375" y="1.875" width="11.25" height="11.25" filterUnits="userSpaceOnUse" color-interpolation-filters="sRGB">
<feFlood flood-opacity="0" result="BackgroundImageFix"/>
<feBlend mode="normal" in="SourceGraphic" in2="BackgroundImageFix" result="shape"/>
<feColorMatrix in="SourceAlpha" type="matrix" values="0 0 0 0 0 0 0 0 0 0 0 0 0 0 0 0 0 0 127 0" result="hardAlpha"/>
<feOffset dy="0.9375"/>
<feComposite in2="hardAlpha" operator="arithmetic" k2="-1" k3="1"/>
<feColorMatrix type="matrix" values="0 0 0 0 0.941176 0 0 0 0 0.745098 0 0 0 0 0.270588 0 0 0 1 0"/>
<feBlend mode="normal" in2="shape" result="effect1_innerShadow_134_1592"/>
</filter>
</defs>
</svg>
