<svg width="20" height="20" viewBox="0 0 20 20" fill="none" xmlns="http://www.w3.org/2000/svg">
<path d="M10 3.63629L3.63629 10L10 16.3638L16.3638 10L10 3.63629ZM10.5303 2.04479L17.9553 9.46979C18.0959 9.61043 18.1749 9.80116 18.1749 10C18.1749 10.1989 18.0959 10.3896 17.9553 10.5303L10.5303 17.9553C10.3896 18.0959 10.1989 18.1749 10 18.1749C9.80116 18.1749 9.61043 18.0959 9.46979 17.9553L2.04479 10.5303C1.90418 10.3896 1.8252 10.1989 1.8252 10C1.8252 9.80116 1.90418 9.61043 2.04479 9.46979L9.46979 2.04479C9.61043 1.90418 9.80116 1.8252 10 1.8252C10.1989 1.8252 10.3896 1.90418 10.5303 2.04479ZM10.75 8.50003V6.62503L13.375 9.25003L10.75 11.875V10H8.50003V12.25H7.00003V9.25003C7.00003 9.05112 7.07905 8.86036 7.2197 8.71971C7.36036 8.57905 7.55112 8.50003 7.75003 8.50003H10.75Z" fill="#0E121B"/>
</svg>
