<svg width="103" height="20" viewBox="0 0 103 20" fill="none" xmlns="http://www.w3.org/2000/svg">
<g clip-path="url(#clip0_604_23866)">
<path d="M3.68844 1.86874C3.68844 0.836664 2.86275 0 1.84422 0C0.825685 0 0 0.836664 0 1.86874V18.1313C0 19.1633 0.825685 20 1.84422 20C2.86275 20 3.68844 19.1633 3.68844 18.1313V1.86874Z" fill="#0E121B"/>
<path d="M12.8707 7.12305C9.36083 7.12305 6.51532 10.0058 6.51532 13.5616C6.51532 17.1175 9.36083 20.0002 12.8707 20.0002C16.3806 20.0002 19.2261 17.1175 19.2261 13.5616C19.2261 10.0058 16.3806 7.12305 12.8707 7.12305ZM12.8707 16.3231C11.3656 16.3231 10.145 15.0872 10.145 13.5616C10.145 12.0361 11.3656 10.8002 12.8707 10.8002C14.3758 10.8002 15.5964 12.0369 15.5964 13.5616C15.5964 15.0864 14.3758 16.3231 12.8707 16.3231Z" fill="#0E121B"/>
<path d="M71.0937 1.86874C71.0937 0.836664 70.268 0 69.2494 0C68.2309 0 67.4052 0.836664 67.4052 1.86874V12.5511C67.4052 13.5832 68.2309 14.4198 69.2494 14.4198C70.268 14.4198 71.0937 13.5832 71.0937 12.5511V1.86874Z" fill="#0E121B"/>
<path d="M64.8596 7.12418C61.2542 7.05643 58.3183 10.03 58.3845 13.6826C58.4469 17.1253 61.2189 19.9344 64.6171 19.9984C68.2232 20.0669 71.1599 17.0918 71.093 13.4392C71.0298 9.99653 68.2578 7.18821 64.8596 7.12418ZM64.9155 16.3175C63.2708 16.4232 61.9142 15.0488 62.0185 13.3826C62.1045 12.0082 63.2046 10.8929 64.5613 10.8058C66.2059 10.7001 67.5626 12.0745 67.4582 13.7415C67.3722 15.1158 66.2714 16.2304 64.9155 16.3175Z" fill="#0E121B"/>
<path d="M71.0938 11.9834H70.4772V13.561H71.0938V11.9834Z" fill="#0E121B"/>
<path d="M49.0298 8.99179C49.0298 7.95971 48.2041 7.12305 47.1856 7.12305C46.1671 7.12305 45.3414 7.95971 45.3414 8.99179V18.1315C45.3414 19.1636 46.1671 20.0002 47.1856 20.0002C48.2041 20.0002 49.0298 19.1636 49.0298 18.1315V8.99179Z" fill="#0E121B"/>
<path d="M42.7965 7.12418C39.1911 7.05643 36.2552 10.03 36.3213 13.6826C36.3838 17.1253 39.1558 19.9344 42.554 19.9984C46.1601 20.0669 49.0968 17.0918 49.0299 13.4392C48.9667 9.99653 46.1947 7.18821 42.7965 7.12418ZM42.8524 16.3175C41.2077 16.4232 39.851 15.0488 39.9554 13.3826C40.0414 12.0082 41.1415 10.8929 42.4981 10.8058C44.1428 10.7001 45.4995 12.0745 45.3951 13.7415C45.3091 15.1158 44.2082 16.2304 42.8524 16.3175Z" fill="#0E121B"/>
<path d="M46.5019 11.9727H45.8853V13.5503H46.5019V11.9727Z" fill="#0E121B"/>
<path d="M102.94 1.86874C102.94 0.836664 102.115 0 101.096 0C100.078 0 99.2518 0.836664 99.2518 1.86874V12.5511C99.2518 13.5832 100.078 14.4198 101.096 14.4198C102.115 14.4198 102.94 13.5832 102.94 12.5511V1.86874Z" fill="#0E121B"/>
<path d="M96.5857 7.12305C93.0758 7.12305 90.2303 10.0058 90.2303 13.5616C90.2303 17.1175 93.0758 20.0002 96.5857 20.0002C100.096 20.0002 102.941 17.1175 102.941 13.5616C102.941 10.0058 100.096 7.12305 96.5857 7.12305ZM96.5857 16.3231C95.0806 16.3231 93.8599 15.0872 93.8599 13.5616C93.8599 12.0361 95.0806 10.8002 96.5857 10.8002C98.0907 10.8002 99.3114 12.0369 99.3114 13.5616C99.3114 15.0864 98.0907 16.3231 96.5857 16.3231Z" fill="#0E121B"/>
<path d="M102.941 11.9834H102.325V13.561H102.941V11.9834Z" fill="#0E121B"/>
<path d="M55.5454 8.99179C55.5454 7.95971 54.7197 7.12305 53.7012 7.12305C52.6827 7.12305 51.857 7.95971 51.857 8.99179V18.1315C51.857 19.1636 52.6827 20.0002 53.7012 20.0002C54.7197 20.0002 55.5454 19.1636 55.5454 18.1315V8.99179Z" fill="#0E121B"/>
<path d="M53.7017 3.7211C54.7159 3.7211 55.5382 2.88811 55.5382 1.86055C55.5382 0.832997 54.7159 0 53.7017 0C52.6874 0 51.8652 0.832997 51.8652 1.86055C51.8652 2.88811 52.6874 3.7211 53.7017 3.7211Z" fill="#0E121B"/>
<path d="M33.0062 17.9595C33.3001 17.6364 33.4934 17.218 33.4934 16.7467C33.4934 16.2404 33.2847 15.784 32.9518 15.455C32.6225 15.1363 32.1794 14.9345 31.6863 14.9345C31.4423 14.9345 31.2115 14.9881 30.9984 15.0752C30.9029 15.1244 30.8169 15.1862 30.7287 15.245C30.6104 15.3202 30.4825 15.3805 30.3848 15.4803C30.3848 15.4803 30.3848 15.4788 30.3833 15.4788C30.3561 15.5056 30.3172 15.5182 30.2885 15.5436C29.7991 16.0208 29.1421 16.3231 28.4094 16.3231C26.9043 16.3231 25.6837 15.0872 25.6837 13.5616C25.6837 13.5602 25.6837 13.5594 25.6837 13.5579C25.6837 13.5564 25.6837 13.5557 25.6837 13.5542C25.6837 13.176 25.7594 12.8164 25.8968 12.4888C26.3098 11.4963 27.2791 10.7995 28.4094 10.7995C29.1678 10.7995 29.8446 11.1211 30.3385 11.6281C30.3591 11.6467 30.3885 11.6557 30.4083 11.6758C30.409 11.6758 30.4098 11.6735 30.4105 11.6728C30.5046 11.7718 30.6295 11.8321 30.7434 11.9081C30.8309 11.9699 30.9146 12.0339 31.0094 12.0845C31.2218 12.1753 31.4526 12.2297 31.6973 12.2297C32.197 12.2297 32.6475 12.0183 32.9724 11.681C33.2869 11.3474 33.486 10.8985 33.486 10.3989C33.486 9.89936 33.2906 9.46977 32.9856 9.13771C31.834 7.90479 30.2202 7.12305 28.4094 7.12305C24.8995 7.12305 22.054 10.0058 22.054 13.5616C22.054 17.1175 24.8995 20.0002 28.4094 20.0002C30.2319 20.0002 31.8546 19.2081 33.0069 17.9603L33.0062 17.9595Z" fill="#0E121B"/>
<path d="M79.6003 18.1605V18.1613C79.6003 19.1765 80.4126 19.9995 81.4147 19.9995H87.4468C88.4489 19.9995 89.2612 19.1765 89.2612 18.1613V18.1605C89.2612 17.1453 88.4489 16.3223 87.4468 16.3223H81.4147C80.4126 16.3223 79.6003 17.1453 79.6003 18.1605Z" fill="#0E121B"/>
<path d="M80.2769 16.3226C80.2769 16.3226 80.2732 16.3211 80.2688 16.3211C80.2629 16.3211 80.2578 16.3226 80.2527 16.3226C78.7476 16.3226 77.5269 15.0867 77.5269 13.5612C77.5269 12.0356 78.7807 10.7923 80.2527 10.7997C81.5071 10.8064 82.6367 11.7416 82.9189 13.0608C83.0636 13.1353 83.2091 13.209 83.3539 13.2834C84.1829 13.3393 85.0111 13.3959 85.8401 13.4517C86.0591 13.1152 86.2788 12.7779 86.4978 12.4414C86.3868 11.8443 86.023 10.3314 84.726 9.01736C84.5187 8.8074 82.755 7.12256 80.2527 7.12256C76.7428 7.12256 73.8973 10.0046 73.8973 13.5612C73.8973 17.1177 76.7428 19.9998 80.2527 19.9998C80.2923 19.9998 80.3695 20.0012 80.4768 19.9983C80.4768 19.9983 80.8714 19.9871 81.1786 19.932C81.5277 19.8695 82.2192 18.982 82.8086 17.6419C83.1364 17.2026 83.4641 16.7626 83.7919 16.3233H80.2776L80.2769 16.3226Z" fill="#0E121B"/>
<path d="M84.712 10.939H84.7113C83.7079 10.939 82.8946 11.763 82.8946 12.7794V12.7802C82.8946 13.7966 83.7079 14.6206 84.7113 14.6206H84.712C85.7153 14.6206 86.5287 13.7966 86.5287 12.7802V12.7794C86.5287 11.763 85.7153 10.939 84.712 10.939Z" fill="#0E121B"/>
<path d="M84.7943 15.2815C85.7976 15.2815 86.6109 14.4575 86.6109 13.441C86.6109 12.4246 85.7976 11.6006 84.7943 11.6006C83.7909 11.6006 82.9776 12.4246 82.9776 13.441C82.9776 14.4575 83.7909 15.2815 84.7943 15.2815Z" fill="#0E121B"/>
</g>
<defs>
<clipPath id="clip0_604_23866">
<rect width="102.941" height="20" fill="white"/>
</clipPath>
</defs>
</svg>
