<svg width="345" height="62" viewBox="0 0 345 62" fill="none" xmlns="http://www.w3.org/2000/svg">
<g clip-path="url(#clip0_87_9430)">
<path d="M115.161 12.2425C115.161 11.004 114.171 10 112.948 10C111.726 10 110.735 11.004 110.735 12.2425V31.7575C110.735 32.996 111.726 34 112.948 34C114.171 34 115.161 32.996 115.161 31.7575V12.2425Z" fill="#0E121B"/>
<path d="M126.18 18.548C121.968 18.548 118.554 22.0073 118.554 26.2743C118.554 30.5413 121.968 34.0006 126.18 34.0006C130.392 34.0006 133.807 30.5413 133.807 26.2743C133.807 22.0073 130.392 18.548 126.18 18.548ZM126.18 29.588C124.374 29.588 122.909 28.1049 122.909 26.2743C122.909 24.4437 124.374 22.9606 126.18 22.9606C127.986 22.9606 129.451 24.4446 129.451 26.2743C129.451 28.104 127.986 29.588 126.18 29.588Z" fill="#0E121B"/>
<path d="M196.048 12.2425C196.048 11.004 195.057 10 193.835 10C192.613 10 191.622 11.004 191.622 12.2425V25.0613C191.622 26.2998 192.613 27.3038 193.835 27.3038C195.057 27.3038 196.048 26.2998 196.048 25.0613V12.2425Z" fill="#0E121B"/>
<path d="M188.567 18.5494C184.24 18.4681 180.717 22.0364 180.797 26.4195C180.872 30.5507 184.198 33.9216 188.276 33.9984C192.603 34.0806 196.127 30.5105 196.047 26.1274C195.971 21.9962 192.645 18.6262 188.567 18.5494ZM188.634 29.5813C186.66 29.7082 185.032 28.0589 185.158 26.0595C185.261 24.4102 186.581 23.0719 188.209 22.9673C190.183 22.8405 191.81 24.4897 191.685 26.4901C191.582 28.1393 190.261 29.4768 188.634 29.5813Z" fill="#0E121B"/>
<path d="M196.048 24.3806H195.308V26.2737H196.048V24.3806Z" fill="#0E121B"/>
<path d="M169.571 20.7905C169.571 19.552 168.58 18.548 167.358 18.548C166.136 18.548 165.145 19.552 165.145 20.7905V31.7581C165.145 32.9966 166.136 34.0006 167.358 34.0006C168.58 34.0006 169.571 32.9966 169.571 31.7581V20.7905Z" fill="#0E121B"/>
<path d="M162.091 18.5494C157.765 18.4681 154.242 22.0364 154.321 26.4195C154.396 30.5507 157.722 33.9216 161.8 33.9984C166.127 34.0806 169.651 30.5105 169.571 26.1274C169.495 21.9962 166.169 18.6262 162.091 18.5494ZM162.158 29.5813C160.184 29.7082 158.557 28.0589 158.682 26.0595C158.785 24.4102 160.105 23.0719 161.733 22.9673C163.707 22.8405 165.335 24.4897 165.209 26.4901C165.106 28.1393 163.785 29.4768 162.158 29.5813Z" fill="#0E121B"/>
<path d="M166.538 24.3672H165.798V26.2603H166.538V24.3672Z" fill="#0E121B"/>
<path d="M234.264 12.2425C234.264 11.004 233.273 10 232.051 10C230.828 10 229.838 11.004 229.838 12.2425V25.0613C229.838 26.2998 230.828 27.3038 232.051 27.3038C233.273 27.3038 234.264 26.2998 234.264 25.0613V12.2425Z" fill="#0E121B"/>
<path d="M226.638 18.548C222.426 18.548 219.012 22.0073 219.012 26.2743C219.012 30.5413 222.426 34.0006 226.638 34.0006C230.85 34.0006 234.265 30.5413 234.265 26.2743C234.265 22.0073 230.85 18.548 226.638 18.548ZM226.638 29.588C224.832 29.588 223.367 28.1049 223.367 26.2743C223.367 24.4437 224.832 22.9606 226.638 22.9606C228.444 22.9606 229.909 24.4446 229.909 26.2743C229.909 28.104 228.444 29.588 226.638 29.588Z" fill="#0E121B"/>
<path d="M234.265 24.3806H233.525V26.2737H234.265V24.3806Z" fill="#0E121B"/>
<path d="M177.39 20.7905C177.39 19.552 176.399 18.548 175.177 18.548C173.955 18.548 172.964 19.552 172.964 20.7905V31.7581C172.964 32.9966 173.955 34.0006 175.177 34.0006C176.399 34.0006 177.39 32.9966 177.39 31.7581V20.7905Z" fill="#0E121B"/>
<path d="M175.177 14.4653C176.394 14.4653 177.381 13.4657 177.381 12.2327C177.381 10.9996 176.394 10 175.177 10C173.96 10 172.974 10.9996 172.974 12.2327C172.974 13.4657 173.96 14.4653 175.177 14.4653Z" fill="#0E121B"/>
<path d="M150.343 31.5517C150.696 31.164 150.927 30.6619 150.927 30.0964C150.927 29.4888 150.677 28.9412 150.278 28.5463C149.882 28.1639 149.351 27.9218 148.759 27.9218C148.466 27.9218 148.189 27.9861 147.933 28.0906C147.819 28.1496 147.716 28.2238 147.61 28.2943C147.468 28.3846 147.314 28.4569 147.197 28.5767C147.197 28.5767 147.197 28.5749 147.195 28.5749C147.163 28.607 147.116 28.6222 147.082 28.6526C146.494 29.2253 145.706 29.588 144.827 29.588C143.021 29.588 141.556 28.1049 141.556 26.2743C141.556 26.2725 141.556 26.2716 141.556 26.2698C141.556 26.2681 141.556 26.2672 141.556 26.2654C141.556 25.8115 141.647 25.38 141.812 24.9869C142.307 23.796 143.47 22.9597 144.827 22.9597C145.737 22.9597 146.549 23.3457 147.142 23.9541C147.166 23.9764 147.202 23.9871 147.225 24.0113C147.226 24.0113 147.227 24.0086 147.228 24.0077C147.341 24.1265 147.491 24.1989 147.627 24.29C147.732 24.3642 147.833 24.441 147.947 24.5018C148.202 24.6108 148.478 24.676 148.772 24.676C149.372 24.676 149.912 24.4222 150.302 24.0175C150.68 23.6173 150.919 23.0785 150.919 22.479C150.919 21.8796 150.684 21.3641 150.318 20.9656C148.936 19.4861 147 18.548 144.827 18.548C140.615 18.548 137.2 22.0073 137.2 26.2743C137.2 30.5413 140.615 34.0006 144.827 34.0006C147.014 34.0006 148.961 33.05 150.344 31.5526L150.343 31.5517Z" fill="#0E121B"/>
<path d="M206.256 31.7928V31.7937C206.256 33.012 207.23 33.9996 208.433 33.9996H215.671C216.874 33.9996 217.849 33.012 217.849 31.7937V31.7928C217.849 30.5746 216.874 29.587 215.671 29.587H208.433C207.23 29.587 206.256 30.5746 206.256 31.7928Z" fill="#0E121B"/>
<path d="M207.068 29.5876C207.068 29.5876 207.063 29.5858 207.058 29.5858C207.051 29.5858 207.045 29.5876 207.039 29.5876C205.232 29.5876 203.768 28.1045 203.768 26.2739C203.768 24.4433 205.272 22.9512 207.039 22.9602C208.544 22.9682 209.899 24.0904 210.238 25.6735C210.412 25.7628 210.586 25.8513 210.76 25.9406C211.755 26.0076 212.749 26.0755 213.743 26.1426C214.006 25.7387 214.27 25.334 214.533 24.9302C214.4 24.2137 213.963 22.3982 212.407 20.8213C212.158 20.5694 210.041 18.5476 207.039 18.5476C202.827 18.5476 199.412 22.006 199.412 26.2739C199.412 30.5418 202.827 34.0002 207.039 34.0002C207.086 34.0002 207.179 34.002 207.308 33.9984C207.308 33.9984 207.781 33.985 208.15 33.9189C208.569 33.8439 209.398 32.7789 210.106 31.1707C210.499 30.6436 210.892 30.1156 211.286 29.5885H207.069L207.068 29.5876Z" fill="#0E121B"/>
<path d="M212.39 23.1271H212.389C211.185 23.1271 210.209 24.1159 210.209 25.3356V25.3365C210.209 26.5563 211.185 27.5451 212.389 27.5451H212.39C213.594 27.5451 214.57 26.5563 214.57 25.3365V25.3356C214.57 24.1159 213.594 23.1271 212.39 23.1271Z" fill="#0E121B"/>
<path d="M212.488 28.3381C213.692 28.3381 214.668 27.3493 214.668 26.1296C214.668 24.9098 213.692 23.921 212.488 23.921C211.284 23.921 210.308 24.9098 210.308 26.1296C210.308 27.3493 211.284 28.3381 212.488 28.3381Z" fill="#0E121B"/>
</g>
<path d="M110.562 54.52L112.53 46H113.37L113.106 47.476L112.95 47.62C113.046 47.26 113.202 46.952 113.418 46.696C113.642 46.44 113.914 46.244 114.234 46.108C114.554 45.972 114.898 45.904 115.266 45.904C115.69 45.904 116.07 46.008 116.406 46.216C116.742 46.424 117.006 46.724 117.198 47.116C117.398 47.508 117.498 47.976 117.498 48.52C117.498 49.032 117.418 49.508 117.258 49.948C117.106 50.388 116.89 50.772 116.61 51.1C116.33 51.42 116.002 51.672 115.626 51.856C115.258 52.032 114.854 52.12 114.414 52.12C114.022 52.12 113.674 52.044 113.37 51.892C113.066 51.732 112.826 51.508 112.65 51.22C112.474 50.932 112.374 50.6 112.35 50.224L112.53 50.128L111.522 54.52H110.562ZM114.426 51.292C114.714 51.292 114.986 51.224 115.242 51.088C115.498 50.952 115.722 50.76 115.914 50.512C116.114 50.256 116.27 49.96 116.382 49.624C116.494 49.288 116.55 48.92 116.55 48.52C116.55 48.136 116.482 47.812 116.346 47.548C116.21 47.276 116.022 47.072 115.782 46.936C115.542 46.8 115.262 46.732 114.942 46.732C114.63 46.732 114.342 46.804 114.078 46.948C113.822 47.084 113.598 47.276 113.406 47.524C113.214 47.772 113.062 48.068 112.95 48.412C112.846 48.756 112.794 49.132 112.794 49.54C112.794 50.06 112.93 50.484 113.202 50.812C113.482 51.132 113.89 51.292 114.426 51.292ZM121.472 52.108C120.92 52.108 120.444 51.988 120.044 51.748C119.652 51.508 119.352 51.184 119.144 50.776C118.936 50.368 118.832 49.912 118.832 49.408C118.832 48.784 118.956 48.204 119.204 47.668C119.452 47.132 119.812 46.704 120.284 46.384C120.764 46.056 121.344 45.892 122.024 45.892C122.512 45.892 122.928 45.992 123.272 46.192C123.624 46.392 123.892 46.668 124.076 47.02C124.26 47.364 124.352 47.756 124.352 48.196C124.352 48.356 124.336 48.524 124.304 48.7C124.28 48.868 124.24 49.044 124.184 49.228H119.3V48.388H123.764L123.344 48.724C123.368 48.628 123.384 48.532 123.392 48.436C123.408 48.34 123.416 48.248 123.416 48.16C123.416 47.872 123.356 47.62 123.236 47.404C123.124 47.188 122.96 47.02 122.744 46.9C122.528 46.78 122.268 46.72 121.964 46.72C121.572 46.72 121.236 46.8 120.956 46.96C120.684 47.112 120.46 47.32 120.284 47.584C120.116 47.848 119.992 48.144 119.912 48.472C119.84 48.792 119.804 49.116 119.804 49.444C119.804 49.804 119.876 50.124 120.02 50.404C120.172 50.676 120.38 50.892 120.644 51.052C120.908 51.204 121.22 51.28 121.58 51.28C121.988 51.272 122.324 51.184 122.588 51.016C122.852 50.848 123.068 50.628 123.236 50.356L123.992 50.86C123.816 51.116 123.604 51.34 123.356 51.532C123.108 51.716 122.824 51.86 122.504 51.964C122.192 52.06 121.848 52.108 121.472 52.108ZM128.353 52.108C127.777 52.108 127.285 51.988 126.877 51.748C126.477 51.5 126.169 51.172 125.953 50.764C125.745 50.348 125.641 49.896 125.641 49.408C125.641 48.72 125.773 48.112 126.037 47.584C126.301 47.056 126.665 46.644 127.129 46.348C127.593 46.044 128.129 45.892 128.737 45.892C129.321 45.892 129.813 46.016 130.213 46.264C130.613 46.504 130.917 46.828 131.125 47.236C131.333 47.636 131.437 48.084 131.437 48.58C131.437 49.26 131.305 49.868 131.041 50.404C130.785 50.932 130.425 51.348 129.961 51.652C129.497 51.956 128.961 52.108 128.353 52.108ZM128.389 51.28C128.677 51.28 128.945 51.22 129.193 51.1C129.449 50.972 129.673 50.792 129.865 50.56C130.057 50.32 130.205 50.036 130.309 49.708C130.413 49.38 130.465 49.016 130.465 48.616C130.465 48.264 130.401 47.948 130.273 47.668C130.153 47.38 129.961 47.152 129.697 46.984C129.441 46.808 129.109 46.72 128.701 46.72C128.413 46.72 128.141 46.784 127.885 46.912C127.629 47.032 127.405 47.208 127.213 47.44C127.029 47.672 126.881 47.952 126.769 48.28C126.665 48.608 126.613 48.972 126.613 49.372C126.613 49.716 126.677 50.036 126.805 50.332C126.933 50.62 127.129 50.852 127.393 51.028C127.657 51.196 127.989 51.28 128.389 51.28ZM131.901 54.52L133.869 46H134.709L134.445 47.476L134.289 47.62C134.385 47.26 134.541 46.952 134.757 46.696C134.981 46.44 135.253 46.244 135.573 46.108C135.893 45.972 136.237 45.904 136.605 45.904C137.029 45.904 137.409 46.008 137.745 46.216C138.081 46.424 138.345 46.724 138.537 47.116C138.737 47.508 138.837 47.976 138.837 48.52C138.837 49.032 138.757 49.508 138.597 49.948C138.445 50.388 138.229 50.772 137.949 51.1C137.669 51.42 137.341 51.672 136.965 51.856C136.597 52.032 136.193 52.12 135.753 52.12C135.361 52.12 135.013 52.044 134.709 51.892C134.405 51.732 134.165 51.508 133.989 51.22C133.813 50.932 133.713 50.6 133.689 50.224L133.869 50.128L132.861 54.52H131.901ZM135.765 51.292C136.053 51.292 136.325 51.224 136.581 51.088C136.837 50.952 137.061 50.76 137.253 50.512C137.453 50.256 137.609 49.96 137.721 49.624C137.833 49.288 137.889 48.92 137.889 48.52C137.889 48.136 137.821 47.812 137.685 47.548C137.549 47.276 137.361 47.072 137.121 46.936C136.881 46.8 136.601 46.732 136.281 46.732C135.969 46.732 135.681 46.804 135.417 46.948C135.161 47.084 134.937 47.276 134.745 47.524C134.553 47.772 134.401 48.068 134.289 48.412C134.185 48.756 134.133 49.132 134.133 49.54C134.133 50.06 134.269 50.484 134.541 50.812C134.821 51.132 135.229 51.292 135.765 51.292ZM142.908 43.24L140.88 52H139.92L141.948 43.24H142.908ZM146 52.108C145.448 52.108 144.972 51.988 144.572 51.748C144.18 51.508 143.88 51.184 143.672 50.776C143.464 50.368 143.36 49.912 143.36 49.408C143.36 48.784 143.484 48.204 143.732 47.668C143.98 47.132 144.34 46.704 144.812 46.384C145.292 46.056 145.872 45.892 146.552 45.892C147.04 45.892 147.456 45.992 147.8 46.192C148.152 46.392 148.42 46.668 148.604 47.02C148.788 47.364 148.88 47.756 148.88 48.196C148.88 48.356 148.864 48.524 148.832 48.7C148.808 48.868 148.768 49.044 148.712 49.228H143.828V48.388H148.292L147.872 48.724C147.896 48.628 147.912 48.532 147.92 48.436C147.936 48.34 147.944 48.248 147.944 48.16C147.944 47.872 147.884 47.62 147.764 47.404C147.652 47.188 147.488 47.02 147.272 46.9C147.056 46.78 146.796 46.72 146.492 46.72C146.1 46.72 145.764 46.8 145.484 46.96C145.212 47.112 144.988 47.32 144.812 47.584C144.644 47.848 144.52 48.144 144.44 48.472C144.368 48.792 144.332 49.116 144.332 49.444C144.332 49.804 144.404 50.124 144.548 50.404C144.7 50.676 144.908 50.892 145.172 51.052C145.436 51.204 145.748 51.28 146.108 51.28C146.516 51.272 146.852 51.184 147.116 51.016C147.38 50.848 147.596 50.628 147.764 50.356L148.52 50.86C148.344 51.116 148.132 51.34 147.884 51.532C147.636 51.716 147.352 51.86 147.032 51.964C146.72 52.06 146.376 52.108 146 52.108ZM150.527 52.12C150.327 52.12 150.159 52.06 150.023 51.94C149.895 51.812 149.831 51.648 149.831 51.448C149.831 51.176 149.911 50.96 150.071 50.8C150.231 50.64 150.423 50.56 150.647 50.56C150.847 50.56 151.011 50.624 151.139 50.752C151.275 50.872 151.343 51.032 151.343 51.232C151.343 51.504 151.263 51.72 151.103 51.88C150.951 52.04 150.759 52.12 150.527 52.12ZM156.523 54.52L158.491 46H159.331L159.067 47.476L158.911 47.62C159.007 47.26 159.163 46.952 159.379 46.696C159.603 46.44 159.875 46.244 160.195 46.108C160.515 45.972 160.859 45.904 161.227 45.904C161.651 45.904 162.031 46.008 162.367 46.216C162.703 46.424 162.967 46.724 163.159 47.116C163.359 47.508 163.459 47.976 163.459 48.52C163.459 49.032 163.379 49.508 163.219 49.948C163.067 50.388 162.851 50.772 162.571 51.1C162.291 51.42 161.963 51.672 161.587 51.856C161.219 52.032 160.815 52.12 160.375 52.12C159.983 52.12 159.635 52.044 159.331 51.892C159.027 51.732 158.787 51.508 158.611 51.22C158.435 50.932 158.335 50.6 158.311 50.224L158.491 50.128L157.483 54.52H156.523ZM160.387 51.292C160.675 51.292 160.947 51.224 161.203 51.088C161.459 50.952 161.683 50.76 161.875 50.512C162.075 50.256 162.231 49.96 162.343 49.624C162.455 49.288 162.511 48.92 162.511 48.52C162.511 48.136 162.443 47.812 162.307 47.548C162.171 47.276 161.983 47.072 161.743 46.936C161.503 46.8 161.223 46.732 160.903 46.732C160.591 46.732 160.303 46.804 160.039 46.948C159.783 47.084 159.559 47.276 159.367 47.524C159.175 47.772 159.023 48.068 158.911 48.412C158.807 48.756 158.755 49.132 158.755 49.54C158.755 50.06 158.891 50.484 159.163 50.812C159.443 51.132 159.851 51.292 160.387 51.292ZM167.529 43.24L165.501 52H164.541L166.569 43.24H167.529ZM170.321 52.096C169.857 52.096 169.449 51.984 169.097 51.76C168.745 51.536 168.469 51.228 168.269 50.836C168.069 50.436 167.969 49.976 167.969 49.456C167.969 48.96 168.045 48.496 168.197 48.064C168.349 47.632 168.561 47.252 168.833 46.924C169.105 46.596 169.429 46.34 169.805 46.156C170.181 45.972 170.589 45.88 171.029 45.88C171.381 45.88 171.697 45.94 171.977 46.06C172.257 46.18 172.489 46.352 172.673 46.576C172.857 46.792 172.985 47.052 173.057 47.356L173.369 46H174.329L172.937 52H172.097L172.301 50.884C172.109 51.252 171.833 51.548 171.473 51.772C171.121 51.988 170.737 52.096 170.321 52.096ZM170.573 51.28C170.853 51.28 171.117 51.208 171.365 51.064C171.621 50.92 171.845 50.724 172.037 50.476C172.237 50.22 172.393 49.924 172.505 49.588C172.617 49.244 172.673 48.876 172.673 48.484C172.673 48.124 172.605 47.812 172.469 47.548C172.341 47.276 172.157 47.068 171.917 46.924C171.685 46.78 171.409 46.708 171.089 46.708C170.769 46.708 170.477 46.78 170.213 46.924C169.949 47.06 169.721 47.252 169.529 47.5C169.337 47.748 169.185 48.04 169.073 48.376C168.969 48.704 168.917 49.06 168.917 49.444C168.917 49.836 168.981 50.168 169.109 50.44C169.237 50.712 169.421 50.92 169.661 51.064C169.909 51.208 170.213 51.28 170.573 51.28ZM178.027 52.108C177.475 52.108 176.999 51.988 176.599 51.748C176.207 51.5 175.907 51.172 175.699 50.764C175.491 50.348 175.387 49.892 175.387 49.396C175.387 48.708 175.519 48.104 175.783 47.584C176.047 47.056 176.415 46.644 176.887 46.348C177.359 46.044 177.907 45.892 178.531 45.892C178.987 45.892 179.383 45.972 179.719 46.132C180.063 46.292 180.339 46.512 180.547 46.792C180.763 47.072 180.907 47.388 180.979 47.74L179.971 47.98C179.939 47.628 179.799 47.332 179.551 47.092C179.311 46.844 178.955 46.72 178.483 46.72C178.179 46.72 177.895 46.784 177.631 46.912C177.375 47.04 177.151 47.224 176.959 47.464C176.767 47.696 176.619 47.976 176.515 48.304C176.411 48.624 176.359 48.984 176.359 49.384C176.359 49.736 176.427 50.056 176.563 50.344C176.699 50.632 176.895 50.86 177.151 51.028C177.415 51.196 177.739 51.28 178.123 51.28C178.435 51.28 178.727 51.2 178.999 51.04C179.279 50.88 179.475 50.644 179.587 50.332L180.523 50.668C180.315 51.132 179.987 51.488 179.539 51.736C179.099 51.984 178.595 52.108 178.027 52.108ZM184.414 52.108C183.862 52.108 183.386 51.988 182.986 51.748C182.594 51.508 182.294 51.184 182.086 50.776C181.878 50.368 181.774 49.912 181.774 49.408C181.774 48.784 181.898 48.204 182.146 47.668C182.394 47.132 182.754 46.704 183.226 46.384C183.706 46.056 184.286 45.892 184.966 45.892C185.454 45.892 185.87 45.992 186.214 46.192C186.566 46.392 186.834 46.668 187.018 47.02C187.202 47.364 187.294 47.756 187.294 48.196C187.294 48.356 187.278 48.524 187.246 48.7C187.222 48.868 187.182 49.044 187.126 49.228H182.242V48.388H186.706L186.286 48.724C186.31 48.628 186.326 48.532 186.334 48.436C186.35 48.34 186.358 48.248 186.358 48.16C186.358 47.872 186.298 47.62 186.178 47.404C186.066 47.188 185.902 47.02 185.686 46.9C185.47 46.78 185.21 46.72 184.906 46.72C184.514 46.72 184.178 46.8 183.898 46.96C183.626 47.112 183.402 47.32 183.226 47.584C183.058 47.848 182.934 48.144 182.854 48.472C182.782 48.792 182.746 49.116 182.746 49.444C182.746 49.804 182.818 50.124 182.962 50.404C183.114 50.676 183.322 50.892 183.586 51.052C183.85 51.204 184.162 51.28 184.522 51.28C184.93 51.272 185.266 51.184 185.53 51.016C185.794 50.848 186.01 50.628 186.178 50.356L186.934 50.86C186.758 51.116 186.546 51.34 186.298 51.532C186.05 51.716 185.766 51.86 185.446 51.964C185.134 52.06 184.79 52.108 184.414 52.108ZM190.993 52.132C190.529 52.132 190.109 52.06 189.733 51.916C189.365 51.772 189.049 51.568 188.785 51.304C188.529 51.04 188.333 50.728 188.197 50.368L189.109 49.972C189.261 50.412 189.497 50.744 189.817 50.968C190.137 51.184 190.545 51.292 191.041 51.292C191.465 51.292 191.785 51.2 192.001 51.016C192.225 50.824 192.337 50.592 192.337 50.32C192.337 50.112 192.277 49.948 192.157 49.828C192.037 49.708 191.849 49.612 191.593 49.54L190.525 49.24C190.029 49.104 189.657 48.9 189.409 48.628C189.161 48.348 189.037 48.028 189.037 47.668C189.037 47.332 189.129 47.032 189.313 46.768C189.497 46.496 189.761 46.28 190.105 46.12C190.449 45.96 190.857 45.88 191.329 45.88C191.897 45.88 192.397 46.008 192.829 46.264C193.261 46.52 193.569 46.892 193.753 47.38L192.877 47.8C192.805 47.576 192.693 47.384 192.541 47.224C192.389 47.056 192.205 46.928 191.989 46.84C191.781 46.752 191.541 46.708 191.269 46.708C190.829 46.708 190.501 46.788 190.285 46.948C190.077 47.108 189.973 47.32 189.973 47.584C189.973 47.808 190.049 47.988 190.201 48.124C190.361 48.252 190.557 48.348 190.789 48.412L191.965 48.748C192.373 48.86 192.693 49.044 192.925 49.3C193.165 49.556 193.285 49.852 193.285 50.188C193.285 50.588 193.185 50.936 192.985 51.232C192.785 51.52 192.513 51.744 192.169 51.904C191.825 52.056 191.433 52.132 190.993 52.132ZM195.316 52.12C195.116 52.12 194.948 52.06 194.812 51.94C194.684 51.812 194.62 51.648 194.62 51.448C194.62 51.176 194.7 50.96 194.86 50.8C195.02 50.64 195.212 50.56 195.436 50.56C195.636 50.56 195.8 50.624 195.928 50.752C196.064 50.872 196.132 51.032 196.132 51.232C196.132 51.504 196.052 51.72 195.892 51.88C195.74 52.04 195.548 52.12 195.316 52.12ZM201.312 54.52L203.28 46H204.12L203.856 47.476L203.7 47.62C203.796 47.26 203.952 46.952 204.168 46.696C204.392 46.44 204.664 46.244 204.984 46.108C205.304 45.972 205.648 45.904 206.016 45.904C206.44 45.904 206.82 46.008 207.156 46.216C207.492 46.424 207.756 46.724 207.948 47.116C208.148 47.508 208.248 47.976 208.248 48.52C208.248 49.032 208.168 49.508 208.008 49.948C207.856 50.388 207.64 50.772 207.36 51.1C207.08 51.42 206.752 51.672 206.376 51.856C206.008 52.032 205.604 52.12 205.164 52.12C204.772 52.12 204.424 52.044 204.12 51.892C203.816 51.732 203.576 51.508 203.4 51.22C203.224 50.932 203.124 50.6 203.1 50.224L203.28 50.128L202.272 54.52H201.312ZM205.176 51.292C205.464 51.292 205.736 51.224 205.992 51.088C206.248 50.952 206.472 50.76 206.664 50.512C206.864 50.256 207.02 49.96 207.132 49.624C207.244 49.288 207.3 48.92 207.3 48.52C207.3 48.136 207.232 47.812 207.096 47.548C206.96 47.276 206.772 47.072 206.532 46.936C206.292 46.8 206.012 46.732 205.692 46.732C205.38 46.732 205.092 46.804 204.828 46.948C204.572 47.084 204.348 47.276 204.156 47.524C203.964 47.772 203.812 48.068 203.7 48.412C203.596 48.756 203.544 49.132 203.544 49.54C203.544 50.06 203.68 50.484 203.952 50.812C204.232 51.132 204.64 51.292 205.176 51.292ZM209.282 52L210.674 46H211.454L211.322 47.38L211.178 47.296C211.306 47 211.482 46.748 211.706 46.54C211.93 46.324 212.182 46.16 212.462 46.048C212.75 45.936 213.034 45.88 213.314 45.88C213.442 45.88 213.554 45.888 213.65 45.904C213.754 45.92 213.846 45.948 213.926 45.988L213.638 46.9C213.558 46.86 213.466 46.832 213.362 46.816C213.266 46.792 213.15 46.78 213.014 46.78C212.71 46.78 212.422 46.852 212.15 46.996C211.886 47.132 211.654 47.344 211.454 47.632C211.254 47.92 211.102 48.292 210.998 48.748L210.242 52H209.282ZM216.759 52.108C216.183 52.108 215.691 51.988 215.283 51.748C214.883 51.5 214.575 51.172 214.359 50.764C214.151 50.348 214.047 49.896 214.047 49.408C214.047 48.72 214.179 48.112 214.443 47.584C214.707 47.056 215.071 46.644 215.535 46.348C215.999 46.044 216.535 45.892 217.143 45.892C217.727 45.892 218.219 46.016 218.619 46.264C219.019 46.504 219.323 46.828 219.531 47.236C219.739 47.636 219.843 48.084 219.843 48.58C219.843 49.26 219.711 49.868 219.447 50.404C219.191 50.932 218.831 51.348 218.367 51.652C217.903 51.956 217.367 52.108 216.759 52.108ZM216.795 51.28C217.083 51.28 217.351 51.22 217.599 51.1C217.855 50.972 218.079 50.792 218.271 50.56C218.463 50.32 218.611 50.036 218.715 49.708C218.819 49.38 218.871 49.016 218.871 48.616C218.871 48.264 218.807 47.948 218.679 47.668C218.559 47.38 218.367 47.152 218.103 46.984C217.847 46.808 217.515 46.72 217.107 46.72C216.819 46.72 216.547 46.784 216.291 46.912C216.035 47.032 215.811 47.208 215.619 47.44C215.435 47.672 215.287 47.952 215.175 48.28C215.071 48.608 215.019 48.972 215.019 49.372C215.019 49.716 215.083 50.036 215.211 50.332C215.339 50.62 215.535 50.852 215.799 51.028C216.063 51.196 216.395 51.28 216.795 51.28ZM223.896 52.108C223.32 52.108 222.828 51.988 222.42 51.748C222.02 51.5 221.712 51.172 221.496 50.764C221.288 50.348 221.184 49.896 221.184 49.408C221.184 48.72 221.316 48.112 221.58 47.584C221.844 47.056 222.208 46.644 222.672 46.348C223.136 46.044 223.672 45.892 224.28 45.892C224.864 45.892 225.356 46.016 225.756 46.264C226.156 46.504 226.46 46.828 226.668 47.236C226.876 47.636 226.98 48.084 226.98 48.58C226.98 49.26 226.848 49.868 226.584 50.404C226.328 50.932 225.968 51.348 225.504 51.652C225.04 51.956 224.504 52.108 223.896 52.108ZM223.932 51.28C224.22 51.28 224.488 51.22 224.736 51.1C224.992 50.972 225.216 50.792 225.408 50.56C225.6 50.32 225.748 50.036 225.852 49.708C225.956 49.38 226.008 49.016 226.008 48.616C226.008 48.264 225.944 47.948 225.816 47.668C225.696 47.38 225.504 47.152 225.24 46.984C224.984 46.808 224.652 46.72 224.244 46.72C223.956 46.72 223.684 46.784 223.428 46.912C223.172 47.032 222.948 47.208 222.756 47.44C222.572 47.672 222.424 47.952 222.312 48.28C222.208 48.608 222.156 48.972 222.156 49.372C222.156 49.716 222.22 50.036 222.348 50.332C222.476 50.62 222.672 50.852 222.936 51.028C223.2 51.196 223.532 51.28 223.932 51.28ZM228.078 52L229.722 44.884C229.818 44.484 229.958 44.16 230.142 43.912C230.326 43.664 230.554 43.48 230.826 43.36C231.106 43.24 231.43 43.18 231.798 43.18C232.022 43.18 232.23 43.208 232.422 43.264C232.614 43.312 232.762 43.38 232.866 43.468L232.542 44.248C232.47 44.192 232.366 44.144 232.23 44.104C232.094 44.064 231.95 44.044 231.798 44.044C231.462 44.044 231.202 44.124 231.018 44.284C230.834 44.444 230.698 44.728 230.61 45.136L230.418 46L230.358 46.312L229.038 52H228.078ZM228.054 46.828L228.246 46H232.278L232.086 46.828H228.054ZM232.066 52.12C231.866 52.12 231.698 52.06 231.562 51.94C231.434 51.812 231.37 51.648 231.37 51.448C231.37 51.176 231.45 50.96 231.61 50.8C231.77 50.64 231.962 50.56 232.186 50.56C232.386 50.56 232.55 50.624 232.678 50.752C232.814 50.872 232.882 51.032 232.882 51.232C232.882 51.504 232.802 51.72 232.642 51.88C232.49 52.04 232.298 52.12 232.066 52.12Z" fill="#525866"/>
<defs>
<clipPath id="clip0_87_9430">
<rect width="123.529" height="24" fill="white" transform="translate(110.735 10)"/>
</clipPath>
</defs>
</svg>
