<svg width="20" height="22" viewBox="0 0 20 22" fill="none" xmlns="http://www.w3.org/2000/svg">
<path d="M10.2496 1C15.12 1 19.2493 5.03282 19.2493 9.92542C19.2493 14.8959 15.0528 18.384 11.1766 20.7559C10.8941 20.9154 10.5747 20.9992 10.2496 20.9992C9.92461 20.9992 9.60517 20.9154 9.32268 20.7559C5.45373 18.3609 1.25 14.9131 1.25 9.92542C1.25 5.03282 5.37928 1 10.2496 1Z" stroke="#0E121B" stroke-width="1.5"/>
<path d="M13.7493 9.99937C13.7493 11.9323 12.1824 13.4992 10.2494 13.4992C8.31651 13.4992 6.74957 11.9323 6.74957 9.99937C6.74957 8.06645 8.31651 6.49951 10.2494 6.49951C12.1824 6.49951 13.7493 8.06645 13.7493 9.99937Z" stroke="#0E121B" stroke-width="1.5"/>
</svg>
