<svg width="22" height="21" viewBox="0 0 22 21" fill="none" xmlns="http://www.w3.org/2000/svg">
<path d="M0.75 10.5C0.75 6.02166 0.75 3.78249 2.21446 2.39124C3.67892 1 6.03593 1 10.7499 1C15.464 1 17.821 1 19.2854 2.39124C20.7499 3.78249 20.7499 6.02166 20.7499 10.5C20.7499 14.9783 20.7499 17.2175 19.2854 18.6088C17.821 20 15.464 20 10.7499 20C6.03593 20 3.67892 20 2.21446 18.6088C0.75 17.2175 0.75 14.9783 0.75 10.5Z" stroke="#0E121B" stroke-width="1.5"/>
<path d="M0.750092 6H20.75" stroke="#0E121B" stroke-width="1.5" stroke-linejoin="round"/>
<path d="M16.0131 1L12.8552 6" stroke="#0E121B" stroke-width="1.5" stroke-linejoin="round"/>
<path d="M8.64469 1L5.48682 6" stroke="#0E121B" stroke-width="1.5" stroke-linejoin="round"/>
<path d="M13.8585 13.3948C13.699 14.0215 12.9454 14.4644 11.4382 15.3502C9.98125 16.2064 9.25275 16.6346 8.66567 16.4625C8.42295 16.3913 8.20181 16.2562 8.02346 16.07C7.59207 15.6198 7.59207 14.7465 7.59207 13C7.59207 11.2535 7.59207 10.3802 8.02346 9.92995C8.20181 9.74381 8.42295 9.60868 8.66567 9.53753C9.25275 9.36544 9.98125 9.79357 11.4382 10.6498C12.9454 11.5356 13.699 11.9785 13.8585 12.6052C13.9243 12.8639 13.9243 13.1361 13.8585 13.3948Z" stroke="#0E121B" stroke-width="1.5" stroke-linejoin="round"/>
</svg>
