<svg width="23" height="21" viewBox="0 0 23 21" fill="none" xmlns="http://www.w3.org/2000/svg">
<path d="M11.5556 1H7.33333C4.34777 1 2.85499 1 1.9275 1.9275C1 2.85499 1 4.34777 1 7.33333V13.6667C1 16.6522 1 18.145 1.9275 19.0725C2.85499 20 4.34777 20 7.33333 20H20C19.2 20 18.2593 19.0737 17.8889 18.6106V13.6667V7.33333C17.8889 4.34777 17.8889 2.85499 16.9614 1.9275C16.0339 1 14.5411 1 11.5556 1Z" fill="#0E121B" stroke="#0E121B" stroke-width="1.5" stroke-linecap="round" stroke-linejoin="round"/>
<path d="M5.20098 6.25L13.601 6.25" stroke="white" stroke-width="1.5" stroke-linecap="round" stroke-linejoin="round"/>
<path d="M5.20098 10.4502L13.601 10.4502" stroke="white" stroke-width="1.5" stroke-linecap="round" stroke-linejoin="round"/>
<path d="M5.20097 14.6504L9.40097 14.6504" stroke="white" stroke-width="1.5" stroke-linecap="round" stroke-linejoin="round"/>
<path d="M17.801 6.25H18.851C20.3359 6.25 21.0784 6.25 21.5397 6.71131C22.001 7.17261 22.001 7.91508 22.001 9.4V17.8C22.001 18.9598 21.0608 19.9 19.901 19.9C18.7412 19.9 17.801 18.9598 17.801 17.8V6.25Z" stroke="#0E121B" stroke-width="1.5" stroke-linecap="round" stroke-linejoin="round"/>
</svg>
