<svg width="17" height="13" viewBox="0 0 17 13" fill="none" xmlns="http://www.w3.org/2000/svg">
<path d="M2.29927 4.33484L3.96222 2.66607C5.1604 1.46369 5.63006 0.816868 6.27886 1.04553C7.08791 1.33065 6.82157 3.1297 6.82157 3.73706C8.07943 3.73706 9.38717 3.62527 10.627 3.8582C14.7201 4.62716 16 7.95143 16 11.5769C14.8415 10.7563 13.6842 9.8821 12.2919 9.50178C10.5538 9.02702 8.61275 9.25357 6.82157 9.25357C6.82157 9.86089 7.08791 11.66 6.27886 11.9451C5.54366 12.2042 5.1604 11.5269 3.96222 10.3246L2.29927 8.65579C1.27925 7.63218 0.769231 7.12038 0.769231 6.49532C0.769231 5.87025 1.27925 5.35845 2.29927 4.33484Z" stroke="#5D6C7B" stroke-width="1.5" stroke-linecap="round" stroke-linejoin="round"/>
</svg>
