<svg width="16" height="14" viewBox="0 0 16 14" fill="none" xmlns="http://www.w3.org/2000/svg">
<path d="M1.5 6.41171C1.5 7.15892 2.10573 7.76465 2.85294 7.76465C3.97375 7.76465 4.88235 6.85605 4.88235 5.73524V3.02936C4.88235 1.90854 3.97375 0.999944 2.85294 0.999944C2.10573 0.999944 1.5 1.60568 1.5 2.35288V6.41171Z" stroke="#5D6C7B" stroke-width="1.5" stroke-linecap="round" stroke-linejoin="round"/>
<path d="M10.617 9.58694L10.4369 9.00512C10.2893 8.52837 10.2155 8.28999 10.2722 8.10173C10.3181 7.94942 10.4189 7.81813 10.5563 7.73176C10.7261 7.62498 10.983 7.62498 11.4967 7.62498H11.77C13.5086 7.62498 14.3778 7.62498 14.7884 7.11036C14.8354 7.05154 14.8771 6.989 14.9132 6.9234C15.229 6.34943 14.8699 5.57623 14.1517 4.02984C13.4927 2.61075 13.1631 1.90121 12.5512 1.48357C12.492 1.44314 12.4311 1.40501 12.3688 1.36926C11.7246 1 10.9265 1 9.33015 1H8.98393C7.04998 1 6.08301 1 5.48221 1.58212C4.88141 2.16425 4.88141 3.10116 4.88141 4.97499V5.63359C4.88141 6.61834 4.88141 7.11071 5.05617 7.56136C5.23093 8.01202 5.56556 8.38256 6.23482 9.12366L9.00255 12.1884C9.07196 12.2653 9.10667 12.3037 9.13727 12.3304C9.42292 12.579 9.86377 12.551 10.1135 12.2684C10.1403 12.2381 10.1695 12.1956 10.228 12.1107C10.3194 11.9777 10.3652 11.9113 10.405 11.8454C10.7619 11.2559 10.8698 10.5556 10.7064 9.89075C10.6881 9.8165 10.6644 9.73994 10.617 9.58694Z" stroke="#5D6C7B" stroke-width="1.5" stroke-linecap="round" stroke-linejoin="round"/>
</svg>
