<svg width="17" height="13" viewBox="0 0 17 13" fill="none" xmlns="http://www.w3.org/2000/svg">
<path d="M14.7007 4.33484L13.0378 2.66607C11.8396 1.46369 11.3699 0.816868 10.7211 1.04553C9.91209 1.33065 10.1784 3.1297 10.1784 3.73706C8.92057 3.73706 7.61283 3.62527 6.37295 3.8582C2.27989 4.62716 1 7.95143 1 11.5769C2.15847 10.7563 3.31578 9.8821 4.70812 9.50178C6.44616 9.02702 8.38725 9.25357 10.1784 9.25357C10.1784 9.86089 9.91209 11.66 10.7211 11.9451C11.4563 12.2042 11.8396 11.5269 13.0378 10.3246L14.7007 8.65579C15.7208 7.63218 16.2308 7.12038 16.2308 6.49532C16.2308 5.87025 15.7208 5.35845 14.7007 4.33484Z" stroke="#5D6C7B" stroke-width="1.5" stroke-linecap="round" stroke-linejoin="round"/>
</svg>
