<svg width="16" height="14" viewBox="0 0 16 14" fill="none" xmlns="http://www.w3.org/2000/svg">
<path d="M1.5 7.08824C1.5 6.34106 2.10571 5.73535 2.85289 5.73535C3.97366 5.73535 4.88222 6.64391 4.88222 7.76468V10.4705C4.88222 11.5912 3.97366 12.4998 2.85289 12.4998C2.10571 12.4998 1.5 11.8941 1.5 11.1469V7.08824Z" stroke="#5D6C7B" stroke-width="1.5" stroke-linecap="round" stroke-linejoin="round"/>
<path d="M10.6182 3.91294L10.4381 4.49474C10.2905 4.97148 10.2167 5.20984 10.2734 5.3981C10.3193 5.5504 10.4201 5.68168 10.5575 5.76806C10.7273 5.87482 10.9841 5.87482 11.4978 5.87482H11.7711C13.5096 5.87482 14.3789 5.87482 14.7894 6.38943C14.8364 6.44824 14.8781 6.51078 14.9142 6.57638C15.23 7.15033 14.871 7.92349 14.1528 9.46982C13.4937 10.8889 13.1642 11.5984 12.5523 12.016C12.4931 12.0564 12.4322 12.0946 12.3699 12.1303C11.7257 12.4995 10.9276 12.4995 9.33138 12.4995H8.98517C7.0513 12.4995 6.08437 12.4995 5.48359 11.9174C4.88281 11.3353 4.88281 10.3985 4.88281 8.52471V7.86613C4.88281 6.88143 4.88281 6.38908 5.05757 5.93844C5.23232 5.4878 5.56694 5.11727 6.23617 4.37621L9.00379 1.31154C9.0732 1.23468 9.10791 1.19625 9.13851 1.16962C9.42414 0.921046 9.86497 0.949025 10.1147 1.23158C10.1415 1.26185 10.1707 1.30434 10.2292 1.38932C10.3206 1.52225 10.3664 1.58871 10.4062 1.65456C10.763 2.24407 10.871 2.94435 10.7075 3.60914C10.6893 3.6834 10.6656 3.75996 10.6182 3.91294Z" stroke="#5D6C7B" stroke-width="1.5" stroke-linecap="round" stroke-linejoin="round"/>
</svg>
