<svg width="15" height="14" viewBox="0 0 15 14" fill="none" xmlns="http://www.w3.org/2000/svg">
<path d="M10.1935 1L10.8343 1.62345C11.1205 1.90198 11.2637 2.04124 11.2133 2.15958C11.1629 2.27791 10.9605 2.27791 10.5557 2.27791H5.59677C3.05804 2.27791 1 4.28039 1 6.75058C1 7.70086 1.30458 8.58192 1.82393 9.30639" stroke="#2196F3" stroke-width="1.5" stroke-linecap="round" stroke-linejoin="round"/>
<path d="M4.58836 12.5002L3.94762 11.8768C3.66136 11.5983 3.51823 11.459 3.5686 11.3407C3.61898 11.2223 3.82139 11.2223 4.22622 11.2223H9.18513C11.7239 11.2223 13.7819 9.21985 13.7819 6.74966C13.7819 5.79938 13.4773 4.91831 12.958 4.19385" stroke="#2196F3" stroke-width="1.5" stroke-linecap="round" stroke-linejoin="round"/>
</svg>
