<svg width="20" height="20" viewBox="0 0 20 20" fill="none" xmlns="http://www.w3.org/2000/svg">
<path d="M7.75 3.25V4.75H4V15.25H16V8.5H17.5V16C17.5 16.1989 17.421 16.3897 17.2803 16.5303C17.1397 16.671 16.9489 16.75 16.75 16.75H3.25C3.05109 16.75 2.86032 16.671 2.71967 16.5303C2.57902 16.3897 2.5 16.1989 2.5 16V4C2.5 3.80109 2.57902 3.61032 2.71967 3.46967C2.86032 3.32902 3.05109 3.25 3.25 3.25H7.75ZM13 4.75V1.75L18.25 6.25H11.5C11.1022 6.25 10.7206 6.40804 10.4393 6.68934C10.158 6.97064 10 7.35218 10 7.75V12.25H8.5V7.75C8.5 6.95435 8.81607 6.19129 9.37868 5.62868C9.94129 5.06607 10.7044 4.75 11.5 4.75H13Z" fill="#0E121B"/>
</svg>
