<svg width="48" height="49" viewBox="0 0 48 49" fill="none" xmlns="http://www.w3.org/2000/svg">
<path d="M0 24.5C0 11.2452 10.7452 0.5 24 0.5C37.2548 0.5 48 11.2452 48 24.5C48 37.7548 37.2548 48.5 24 48.5C10.7452 48.5 0 37.7548 0 24.5Z" fill="#F2F5F8"/>
<path d="M23.9999 34.3998C25.7901 34.3998 27.507 33.6886 28.7729 32.4228C30.0388 31.1569 30.7499 29.44 30.7499 27.6498C30.7499 26.8704 30.5429 26.1225 30.2999 25.4268C28.7996 26.9091 27.6602 27.6498 26.8799 27.6498C30.4754 21.3498 28.4999 18.6498 23.0999 15.0498C23.5499 19.5498 20.5835 21.5964 19.3757 22.7331C18.3905 23.6598 17.7064 24.8611 17.4122 26.1813C17.1179 27.5015 17.227 28.8796 17.7254 30.137C18.2238 31.3944 19.0884 32.4731 20.2072 33.2331C21.326 33.9932 22.6474 34.3997 23.9999 34.3998ZM24.6389 18.4113C27.5558 20.8863 27.5702 22.8096 25.3166 26.7579C24.6317 27.9576 25.4984 29.4498 26.8799 29.4498C27.4991 29.4498 28.1255 29.2698 28.787 28.9143C28.5909 29.655 28.2256 30.34 27.7198 30.9155C27.2139 31.491 26.5814 31.9412 25.872 32.2307C25.1626 32.5202 24.3956 32.641 23.6316 32.5837C22.8675 32.5264 22.1272 32.2925 21.4689 31.9004C20.8106 31.5084 20.2524 30.9688 19.838 30.3243C19.4237 29.6798 19.1646 28.9479 19.0812 28.1863C18.9979 27.4246 19.0924 26.654 19.3575 25.9352C19.6225 25.2163 20.0509 24.5687 20.6087 24.0435C20.7221 23.9373 21.2972 23.427 21.3224 23.4045C21.704 23.0625 22.0181 22.7592 22.3286 22.4271C23.4356 21.2409 24.2312 19.9251 24.638 18.4113H24.6389Z" fill="#525866"/>
</svg>
